<svg xmlns="http://www.w3.org/2000/svg" width="185.326" height="148.194" viewBox="0 0 185.326 148.194">
    <defs>
        <style>
            .prefix__cls-1{fill:none;stroke:#1c7b41;stroke-width:.75px}.prefix__cls-2{fill:#1c7b41}.prefix__cls-3{fill:#e9ebe1;opacity:.24}.prefix__cls-7{fill:#61af32}.prefix__cls-8{fill:#d5d4ae}.prefix__cls-9{fill:#25231e}.prefix__cls-11,.prefix__cls-12{fill:#b49c63;fill-rule:evenodd}.prefix__cls-12{fill:#1a1818}
        </style>
    </defs>
    <g id="prefix__ArabBoard_Logo" data-name="ArabBoard Logo" transform="translate(-133.281 -428.522)">
        <g id="prefix__Group_1146" data-name="Group 1146" transform="translate(169.626 428.522)">
            <path id="prefix__Path_13533" d="M373.6 458.244a26.089 26.089 0 0 0-6.548 2.737c-3.585 2.067-3.993 2.736-3.993 2.736" class="prefix__cls-1" data-name="Path 13533" transform="translate(-282.411 -443.111)"/>
            <path id="prefix__Path_13534" d="M376.8 452.1a43.172 43.172 0 0 0-5.96 3.127 32.922 32.922 0 0 0-3.592 2.737" class="prefix__cls-1" data-name="Path 13534" transform="translate(-284.466 -440.096)"/>
            <path id="prefix__Path_13535" d="M378.736 447.713s-6.131 2.023-9.022 5.362" class="prefix__cls-1" data-name="Path 13535" transform="translate(-285.677 -437.942)"/>
            <path id="prefix__Path_13536" d="M382.309 443.414a17.246 17.246 0 0 0-7.223 4.422" class="prefix__cls-1" data-name="Path 13536" transform="translate(-288.313 -435.832)"/>
            <path id="prefix__Path_13537" d="M388.31 430.5a52.475 52.475 0 0 0-3.23 5.265c-1.351.589-3.485 1.035-5.405 2.689 0-.002 6.15-6.8 8.635-7.954z" class="prefix__cls-2" data-name="Path 13537" transform="translate(-290.566 -429.492)"/>
            <path id="prefix__Path_13538" d="M391.471 430.006l-3.024 1.378-.252.689h-1.009l-.575 2.349s3.095-3.038 4.86-4.416z" class="prefix__cls-2" data-name="Path 13538" transform="translate(-293.971 -429.25)"/>
            <path id="prefix__Path_13539" d="M385.335 435.951a5.121 5.121 0 0 1-.149 2.09" class="prefix__cls-1" data-name="Path 13539" transform="translate(-293.271 -432.168)"/>
            <path id="prefix__Path_13540" d="M382.147 438.309a7.024 7.024 0 0 1-.033 2.6" class="prefix__cls-1" data-name="Path 13540" transform="translate(-291.763 -433.326)"/>
            <path id="prefix__Path_13541" d="M377.791 442.777a11.589 11.589 0 0 0 0 2.761" class="prefix__cls-1" data-name="Path 13541" transform="translate(-289.595 -435.519)"/>
            <path id="prefix__Path_13542" d="M373.3 448.2a3.619 3.619 0 0 1-.286 3.1" class="prefix__cls-1" data-name="Path 13542" transform="translate(-287.299 -438.18)"/>
            <path id="prefix__Path_13543" d="M369.5 452.1a11.7 11.7 0 0 1 .052 3.5" class="prefix__cls-1" data-name="Path 13543" transform="translate(-285.571 -440.094)"/>
            <path id="prefix__Path_13544" d="M367.061 457.418a3.756 3.756 0 0 1-.1 2.757" class="prefix__cls-1" data-name="Path 13544" transform="translate(-284.327 -442.705)"/>
            <path id="prefix__Path_13545" d="M404.171 586.572s-6.681-3.773-10.078-5.71a49.938 49.938 0 0 1-9.96-8.565c-1.172-1.529 6.21-7.953 6.21-7.953h1.057" class="prefix__cls-3" data-name="Path 13545" transform="translate(-292.692 -495.189)"/>
            <g id="prefix__Group_1145" data-name="Group 1145">
                <path id="prefix__Path_13546" d="M340.846 552.113a27.469 27.469 0 0 0-12.332 5.5" class="prefix__cls-1" data-name="Path 13546" transform="translate(-265.454 -489.185)"/>
                <path id="prefix__Path_13547" d="M340.906 546.982a57.09 57.09 0 0 0-7.805 3.623 31.044 31.044 0 0 0-4.294 3.488" class="prefix__cls-1" data-name="Path 13547" transform="translate(-265.598 -486.667)"/>
                <path id="prefix__Path_13548" d="M341.694 541.369a40.317 40.317 0 0 0-8.1 3.623 12.874 12.874 0 0 0-4.2 4.6" class="prefix__cls-1" data-name="Path 13548" transform="translate(-265.887 -483.912)"/>
                <path id="prefix__Path_13549" d="M343.681 536.041s-5.862 1.541-8.7 3.2a11.752 11.752 0 0 0-4.187 4.326" class="prefix__cls-1" data-name="Path 13549" transform="translate(-266.574 -481.296)"/>
                <path id="prefix__Path_13550" d="M345.713 528.758a77.779 77.779 0 0 0-8.809 3.967 16.843 16.843 0 0 0-4.51 3.968" class="prefix__cls-1" data-name="Path 13550" transform="translate(-267.359 -477.722)"/>
                <path id="prefix__Path_13551" d="M347.263 522.631a67.158 67.158 0 0 0-8.974 4.312 16.048 16.048 0 0 0-4.644 4.414" class="prefix__cls-1" data-name="Path 13551" transform="translate(-267.973 -474.714)"/>
                <path id="prefix__Path_13552" d="M350.2 515.26a40.09 40.09 0 0 0-9.156 3.936 15.506 15.506 0 0 0-5.436 5.175" class="prefix__cls-1" data-name="Path 13552" transform="translate(-268.937 -471.096)"/>
                <path id="prefix__Path_13553" d="M350.9 510.908a40.618 40.618 0 0 0-8.769 3.66c-3.808 2.3-4.359 4.263-4.359 4.263" class="prefix__cls-1" data-name="Path 13553" transform="translate(-269.997 -468.96)"/>
                <path id="prefix__Path_13554" d="M354.244 503.447a69.719 69.719 0 0 0-9.837 4.189 10.859 10.859 0 0 0-4.372 4.187" class="prefix__cls-1" data-name="Path 13554" transform="translate(-271.11 -465.298)"/>
                <path id="prefix__Path_13555" d="M356.881 497.764a79.222 79.222 0 0 0-9.675 4.033 15.174 15.174 0 0 0-4.869 4.033" class="prefix__cls-1" data-name="Path 13555" transform="translate(-272.239 -462.509)"/>
                <path id="prefix__Path_13556" d="M358.83 492.881a45.105 45.105 0 0 0-9.515 3.75c-4.42 2.463-5.232 4.466-5.232 4.466" class="prefix__cls-1" data-name="Path 13556" transform="translate(-273.097 -460.112)"/>
                <path id="prefix__Path_13557" d="M346.286 495.165a17.758 17.758 0 0 1 5.9-4.965 40.111 40.111 0 0 1 9.124-3.626" class="prefix__cls-1" data-name="Path 13557" transform="translate(-274.178 -457.016)"/>
                <path id="prefix__Path_13558" d="M364.457 479.2a65.283 65.283 0 0 0-9.5 4.3c-3.91 2.313-5.021 4.295-5.021 4.295" class="prefix__cls-1" data-name="Path 13558" transform="translate(-275.97 -453.398)"/>
                <path id="prefix__Path_13559" d="M366.07 474.586s-5.8 2.488-8.592 4.027a39.051 39.051 0 0 0-5.314 3.63" class="prefix__cls-1" data-name="Path 13559" transform="translate(-277.063 -451.132)"/>
                <path id="prefix__Path_13560" d="M368.446 469.523s-5.458 2.326-8.5 3.98a34.387 34.387 0 0 0-5.583 3.893" class="prefix__cls-1" data-name="Path 13560" transform="translate(-278.14 -448.647)"/>
                <path id="prefix__Path_13561" d="M369.932 466.1a42.5 42.5 0 0 0-7.582 2.93 40.094 40.094 0 0 0-5.381 4.052" class="prefix__cls-1" data-name="Path 13561" transform="translate(-279.421 -446.967)"/>
                <path id="prefix__Path_13562" d="M372 462.006a28.8 28.8 0 0 0-8.409 3.478c-1.782 1.217-3.792 2.928-3.792 2.928" class="prefix__cls-1" data-name="Path 13562" transform="translate(-280.811 -444.957)"/>
                <path id="prefix__Path_13563" d="M359.8 467.881a3.3 3.3 0 0 1 .519 2.5" class="prefix__cls-1" data-name="Path 13563" transform="translate(-280.811 -447.841)"/>
                <path id="prefix__Path_13564" d="M356.143 473.387s1.14 2.284.242 4.024" class="prefix__cls-1" data-name="Path 13564" transform="translate(-279.016 -450.543)"/>
                <path id="prefix__Path_13565" d="M353.115 479.2a5.287 5.287 0 0 1 .445 3.753" class="prefix__cls-1" data-name="Path 13565" transform="translate(-277.529 -453.398)"/>
                <path id="prefix__Path_13566" d="M350.66 483.842s1.095.869.4 3.746" class="prefix__cls-1" data-name="Path 13566" transform="translate(-276.324 -455.675)"/>
                <path id="prefix__Path_13567" d="M347.817 489.625a12.829 12.829 0 0 1 .819 4.144" class="prefix__cls-1" data-name="Path 13567" transform="translate(-274.929 -458.514)"/>
                <path id="prefix__Path_13568" d="M344.885 496.076a5.238 5.238 0 0 1 .515 4.245" class="prefix__cls-1" data-name="Path 13568" transform="translate(-273.49 -461.68)"/>
                <path id="prefix__Path_13569" d="M341.951 502.119a10.171 10.171 0 0 1 .828 4.18" class="prefix__cls-1" data-name="Path 13569" transform="translate(-272.05 -464.646)"/>
                <path id="prefix__Path_13570" d="M338.924 509.857s1.354 2.014 1.169 3.44" class="prefix__cls-1" data-name="Path 13570" transform="translate(-270.564 -468.444)"/>
                <path id="prefix__Path_13571" d="M336.274 515.783s1.705 2.04 1.349 3.669" class="prefix__cls-1" data-name="Path 13571" transform="translate(-269.263 -471.353)"/>
                <path id="prefix__Path_13572" d="M334.005 522.248a4 4 0 0 1 1.642 2.973" class="prefix__cls-1" data-name="Path 13572" transform="translate(-268.15 -474.526)"/>
                <path id="prefix__Path_13573" d="M332.4 526.469s2.167 1.6 1.468 3.954" class="prefix__cls-1" data-name="Path 13573" transform="translate(-267.359 -476.598)"/>
                <path id="prefix__Path_13574" d="M330.8 532.166a5.9 5.9 0 0 1 1.391 4c0 .049-.01.1-.017.143" class="prefix__cls-1" data-name="Path 13574" transform="translate(-266.574 -479.394)"/>
                <path id="prefix__Path_13575" d="M328.014 537.6s2.111 1.987 2.123 3.843" class="prefix__cls-1" data-name="Path 13575" transform="translate(-265.209 -482.062)"/>
                <path id="prefix__Path_13576" d="M324.731 543.43s3.281 2.816 2.939 4.421" class="prefix__cls-1" data-name="Path 13576" transform="translate(-263.597 -484.923)"/>
                <path id="prefix__Path_13577" d="M323.029 547.772s2.328 2.631 3.387 4.2" class="prefix__cls-1" data-name="Path 13577" transform="translate(-262.762 -487.055)"/>
                <path id="prefix__Path_13578" d="M321.042 548.959s3.28 2.983 3.953 4.656" class="prefix__cls-1" data-name="Path 13578" transform="translate(-261.787 -487.637)"/>
                <path id="prefix__Line_82" d="M0 0L3.579 3.996" class="prefix__cls-1" data-name="Line 82" transform="translate(59.93 64.214)"/>
                <path id="prefix__Path_13579" fill="none" stroke="#1c7b41" d="M328.014 500.469s.257-11.4 10.79-36.439 24.15-33.532 24.15-33.532" data-name="Path 13579" transform="translate(-265.209 -429.492)"/>
                <path id="prefix__Path_13580" fill="#c3923e" d="M281.509 619.79l34.165 8.162s-.347-2.317-1.737-3.224a3.959 3.959 0 0 1-1.506-2.822l-34.244-5.138-35.478 5.138c-.232 2.822-2.663 3.023-3.358 3.931s1.042 1.813 1.042 1.813l33.239-7.961c-9.02 2.252-18.183 8.062-18.183 8.062l7.412 1.309c1.031-2.192 8.859-6.455 11.494-7.424a4.326 4.326 0 0 0 3.272 1.278 4.282 4.282 0 0 0 3.319-1.33c4.117 1.381 11.68 7.477 11.68 7.477l7.3-1.109c-1.97-3.224-18.417-8.162-18.417-8.162z" data-name="Path 13580" transform="translate(-221.609 -520.92)"/>
                <path id="prefix__Path_13581" fill="#e2001a" d="M289.633 505.69c-16.669 0-30.182-11.586-30.182-25.879s13.513-25.878 30.182-25.878c9.784 0 18.477 3.994 23.991 10.183-6.323-10.189-18.524-17.094-32.542-17.094-20.512 0-37.139 14.779-37.139 33.01s16.628 33.008 37.139 33.008c14.66 0 27.333-7.55 33.372-18.514-5.448 6.744-14.53 11.164-24.821 11.164z" data-name="Path 13581" transform="translate(-223.944 -437.603)"/>
                <path id="prefix__Path_13583" d="M256.8 432.145s-1.542 1.173 0 5.7c1.39 4.083 16.367 23.171 21.222 39.341.527 1.757.689 3.523 1.194 5.145 3.185 10.241 6.873 20.511 6.873 20.511h-.9s-6.159-19.182-8.167-26.379S270.98 464.017 267 456.12c-3.88-7.688-14.441-18.443-10.2-23.975z" class="prefix__cls-7" data-name="Path 13583" transform="translate(-229.769 -430.3)"/>
                <path id="prefix__Path_13584" d="M259.887 460.317s-1.337-3.85-7.075-5.876-6.867-3.131-6.867-3.131a9.27 9.27 0 0 0 5.716 7.524c5.422 2.317 7.202.278 8.226 1.483z" class="prefix__cls-7" data-name="Path 13584" transform="translate(-224.926 -439.707)"/>
                <path id="prefix__Path_13585" d="M300.446 550s-.367-4.01-5.48-7.048-5.946-4.329-5.946-4.329a8.693 8.693 0 0 0 3.751 8.408c4.729 3.269 6.969 1.604 7.675 2.969z" class="prefix__cls-7" data-name="Path 13585" transform="translate(-246.028 -482.565)"/>
                <path id="prefix__Path_13586" d="M281.038 492.5s-2.3-5.032-5-6.839-6.8-3.344-7.067-4.42c.001.003.718 11.634 12.067 11.259z" class="prefix__cls-7" data-name="Path 13586" transform="translate(-236.229 -454.4)"/>
                <path id="prefix__Path_13587" d="M301.7 493.721s-9.516 6.7-3.955 13.689c0 0 4.855-2.735 4.341-7.653a38.3 38.3 0 0 1-.386-6.036z" class="prefix__cls-7" data-name="Path 13587" transform="translate(-249.498 -460.524)"/>
                <path id="prefix__Path_13588" d="M287.044 522.291s-1.284-5.143-5.524-7.266-6.615-3.632-6.615-3.632 1.049 6.26 5.566 9.053 6.573 1.845 6.573 1.845z" class="prefix__cls-7" data-name="Path 13588" transform="translate(-239.141 -469.198)"/>
                <path id="prefix__Path_13589" d="M308.635 533.828a11.18 11.18 0 0 1-.862-6.985c.926-3.41 4.78-6.148 4.458-7.657 0 0 4.818 10.674-3.596 14.642z" class="prefix__cls-7" data-name="Path 13589" transform="translate(-255.144 -473.023)"/>
                <path id="prefix__Path_13590" d="M279.979 450.584s5.2 6.762 2.889 11.513-2.713 5.373-2.713 5.373-2.874-4.143-2.3-6.826 2.445-8.607 2.124-10.06z" class="prefix__cls-7" data-name="Path 13590" transform="translate(-240.553 -439.351)"/>
                <path id="prefix__Path_13591" d="M264.037 428.522s-2.408 8.523.5 14.6a7.506 7.506 0 0 0 3.162-5.939 11.877 11.877 0 0 0-3.662-8.661z" class="prefix__cls-7" data-name="Path 13591" transform="translate(-233.347 -428.522)"/>
                <path id="prefix__Path_13592" d="M259.691 442.438c-.346-2.451-2.062-4.284-3.83-4.094s-2.922 2.329-2.575 4.781 2.063 4.283 3.831 4.094 2.921-2.33 2.574-4.781z" class="prefix__cls-7" data-name="Path 13592" transform="translate(-228.499 -433.336)"/>
                <path id="prefix__Path_13593" d="M290.17 485.224c-1.531-2.079-3.987-3.088-5.488-2.251s-1.476 3.2.054 5.279 3.988 3.087 5.489 2.251 1.475-3.203-.055-5.279z" class="prefix__cls-7" data-name="Path 13593" transform="translate(-243.395 -455.104)"/>
                <path id="prefix__Path_13594" d="M310.093 547.786c-1.435-1.782-3.674-2.571-5-1.762s-1.235 2.909.2 4.691 3.675 2.571 5 1.762 1.237-2.909-.2-4.691z" class="prefix__cls-7" data-name="Path 13594" transform="translate(-253.498 -486.041)"/>
                <path id="prefix__Path_13595" d="M302.835 526.746a4.077 4.077 0 0 0-4.181-3.739 3.771 3.771 0 0 0-3.061 4.486 4.078 4.078 0 0 0 4.181 3.738 3.769 3.769 0 0 0 3.061-4.485z" class="prefix__cls-7" data-name="Path 13595" transform="translate(-249.274 -474.89)"/>
                <path id="prefix__Path_13596" d="M263 564.032s-4.889-6.6-17.029-6.6a143.277 143.277 0 0 0-24.109 2.348l-17.2 28.02h115.157l-15.176-27s-28.998-9.238-41.643 3.232z" class="prefix__cls-8" data-name="Path 13596" transform="translate(-204.664 -491.795)"/>
                <path id="prefix__Path_13597" d="M286.679 559.43l-9.379 22.32s11.947-1.342 21.2 4.806c0 0 6.936-4.136 10.4-4.471s10.277-.783 10.277-.783l-8.221-21.872s-7.964-.036-11.947 5.44c.003 0-3.851-4.732-12.33-5.44z" class="prefix__cls-3" data-name="Path 13597" transform="translate(-240.317 -492.777)"/>
                <path id="prefix__Path_13598" d="M237.945 558.376s-10.825.752-15.061 2.458l-14.2 24.639s2.668.753 12.708-.955 27.849-6.975 41.419 1.12a50.325 50.325 0 0 1 13.728-4.669c16.16-2.388 20.4 4.287 39.929 4.669l-13.179-24.4a80.046 80.046 0 0 0-24.946-2.556s6.08-2.371 26.3 2.448l15.176 26.993H204.664l17.2-28.02a82.478 82.478 0 0 1 16.081-1.727z" class="prefix__cls-9" data-name="Path 13598" transform="translate(-204.664 -492.126)"/>
                <path id="prefix__Path_13599" d="M330.294 609.7s-3.293.318-2.51-.3-1.412-.818-1.648-.818 1.648-1.82 1.02-1.457-2.589 1.3-2.589 1.3a12.655 12.655 0 0 1 7.688-2.713s-6.354.478-.785-.887 12.787-1.5 16.708-.615 20.542 4.456 23.064 4.1a74.157 74.157 0 0 1-9.492.751l11.767.72z" class="prefix__cls-8" data-name="Path 13599" transform="translate(-263.518 -514.485)"/>
                <path id="prefix__Path_13600" d="M264.968 608.979a37.664 37.664 0 0 0-15.3-3.549c-8.315 0-33.1 4.572-37.418 4.5 0 0 2.353 1.023 6.825.478s10.747-.683 11.3-.136 27.848-.489 29.338.3c0 0-2.118-.774-1.569-1.184s4.393.752 4.393.752a9.05 9.05 0 0 0-4.706-1.638s-1.726-1.434 5.569 1.023c0 0-.838-.684.078-.751a3.214 3.214 0 0 1 1.49.205z" class="prefix__cls-8" data-name="Path 13600" transform="translate(-208.389 -515.355)"/>
                <path id="prefix__Path_13601" d="M319.513 567.925a1.736 1.736 0 0 1-.568.283 1 1 0 0 1-.666-.336c-.2-.232-.157.631-.157.631s.423.063.4.8v21.1h.5s-.45-15 .02-20.44a2.963 2.963 0 0 1 .819-1.92c.82-.497-.348-.118-.348-.118z" class="prefix__cls-9" data-name="Path 13601" transform="translate(-260.351 -496.878)"/>
                <path id="prefix__Path_13602" d="M226.614 563.74l7.617 8.667s-1.992 3.672-10.43 8.667-10.781 6.423-10.781 6.423z" class="prefix__cls-3" data-name="Path 13602" transform="translate(-208.766 -494.892)"/>
            </g>
        </g>
        <g id="prefix__Group_1148" data-name="Group 1148" transform="translate(133.281 488.885)">
            <g id="prefix__Group_1147" data-name="Group 1147">
                <path id="prefix__Path_13603" fill="#b49c63" d="M411.009 652.674v-.616s-1.416-.308-1.481.141 1.127.475 1.481.475z" data-name="Path 13603" transform="translate(-268.872 -598.554)"/>
                <path id="prefix__Path_13604" d="M449.534 560.575a2.22 2.22 0 0 1-2.131 2.07 13.246 13.246 0 0 1 .692-1.824c.188-.294 1.378-1.217 1.432-.377l.007.13zm7.191 3.986l-.1-1.57a7.533 7.533 0 0 1 .687-3.445c-.1-.106-2.157-1.209-2.189-1.207-.656.032-.346.793-.589 1.406a3.285 3.285 0 0 0-.424 1.66c-.146.213-1.578 5.072-1.809 5.805-.544 1.725-1.654 4-1.99 5.662-.822-.465-2.943-5.977-3.046-7.6l-.05-.786c1.661-.2 5.045-1.331 4.956-2.731l-.05-.785c-.107-1.691-7.871-5.189-7.394 2.323l-5.715.275a1.055 1.055 0 0 1-.951-.741c.4-.114 1.3-.854 1.279-1.243-.02-.3-.13-.388-.477-.371-.018 0-4.91 2.371-6.015 2.651l.024.393c.725.131 1.641 1.1 2.18 1.076.407-.02.8-.579 2.021-.44a17.469 17.469 0 0 0 2.624-.045c1.909-.092 3.271-.026 5.121-.115.186 2.928 4.545 11.46 7.2 11.333.582-.029.765-1.538.867-2.062.22-1.118.418-1.236.669-2.213a39.233 39.233 0 0 0 1.375-4.526c.553.313 1.782 4.315 1.844 5.291l.017.262a7.819 7.819 0 0 1-.948 3.242 5.851 5.851 0 0 1-2.647 1.918c-3.106.149-8.447-.855-11.339-1.346-1.9-.322-3.853-.318-5.715-.559a32.265 32.265 0 0 0-6.021-.4l-.6.028c.154.968 1.715 1.665 2.756 1.836l.06-.266a60.446 60.446 0 0 1 9.848.848c1.423.182 3.158.525 4.463.8 1.564.334 3.166.409 3.272 2.1.039.63-.817 1.877-1.538 1.911-.579.028-.774-.7-1.562-.844a2.954 2.954 0 0 0-.135.269c.044.691 1.9 1.422 1.946 2.137.035.556-.457 1.991-.929 2.013-.781.038-1.691-1.231-2.038-1.214-.574.028-.056-.037-.443.152.322.854 1.567.906 1.662 2.414.053.845-.69 2.395-1.506 2.433l-3.608.173c.115.72 1.188 1.452 1.77 1.753 2.091-.1 6.643.1 6.733 1.513l.033.525c.3 4.768-1.562 11.622-6.489 11.859l-.9.043c-2.2.106-5.158-2.264-5.673-3.795l-.267.02-.15.525c1.589 1.837 4.561 5.292 8.018 5.126a8.775 8.775 0 0 0 3.338-1.131 9.146 9.146 0 0 0 2.211-2.131 13.278 13.278 0 0 0 2-6.154l-.174-2.747c-.144-2.256-2.278-3.7-3.907-4.537a5.64 5.64 0 0 0 .936-1.882l-.083-1.307a1.875 1.875 0 0 0 1.83-2.056l-.034-.525a6.205 6.205 0 0 0-.667-1.017c.9-.229 2.183-1.264 2.124-2.2l-.025-.392c-.108-1.712-1.706-2.115-2.447-2.9 1.387-.066 2.142.422 3.643.35l.3-.014a5.6 5.6 0 0 0 4.231-1.679 6.443 6.443 0 0 0 1.6-3.851c-.159-2.669-2.774-5.829-2.993-9.298z" class="prefix__cls-11" data-name="Path 13604" transform="translate(-278.69 -552.603)"/>
                <path id="prefix__Path_13605" d="M235.731 657.973a3.685 3.685 0 0 1 2.8.749c.407.314 1.549 1.273 1.582 1.8l.05.786c.032.512-1.511.859-2.207.893l-.9.043c-2.284.109-6.715-.789-7.225-2.146 1.793-.455 2.907-1.976 5.9-2.121zm13.433 2.5c-1.893.092-3.563 1.087-3.61 2.536a7.684 7.684 0 0 1 2.128.155c.315.086 1.657.713 1.7.711.361-.018.428-.234.7-.378l4.37 1.751-5.983.9-.752.036c-1.665.08-4-1.28-4.084-2.559-.037-.583.422-.079.384-1.069-1.308.089-2.154 1.285-3.233 1.337l-1.655.079c-.424.02-.282-.043-.467-.239a5.179 5.179 0 0 0 2.3-1.322c.321-.3 1.438-1.636 1.415-2.007l-.059-.915c-.091-1.429-2.473-3.425-3.984-3.352l-1.5.072a12.285 12.285 0 0 0-4.35 1.336c-.8.325-3.216 1.886-3.588 1.931-.187-.556-.5-.7-.542-1.417l-.017-.262c-.04-.625.494-.118.694-.953 0 0-.289-.117-.31-.116-.338.017-2.292 1.291-3.684 1.358l-.753.036c-1.221.059-2.94-1.173-3.006-2.217l-.049-.785c-.086-1.356 4.093-9.648 4.876-11.126 1.607-.076 7.457.964 8.1 1.71-.849 1.135-6.726 1.977-7.153 3.755.358-.023 5.185-1.535 5.606-1.726.931-.422 3.793-2.283 3.728-3.315l-.016-.262c-.1-1.548-7.607-1.614-9.189-2.183.332-.877.862-1.821 1.251-2.858.114-.586 1.1-2.824 1.082-3.159-.052-.833-3.454.409-3.493 1.907l1.04-.2.172.025-1.328 4.211c-4.039-.1-12.387-3.664-12.606-7.133-.147-2.314 1.085-2.842 2.916-4.362l-.183-.1c-.24-.187-2.6 1.761-2.851 2.007a4.5 4.5 0 0 0-1.427 4.969c.684 1.929 3.428 3.474 4.934 4.33a13.478 13.478 0 0 0 3.716 1.391c1.01.245 3.412.751 4.193 1.063-.1.487-2.67 5.448-3.126 6.272-.434.783-.962 2.392-1.346 3.3a7.548 7.548 0 0 0-.714 3.8l.017.262c.09 1.421 1.865 2.4 3.617 2.319 1.624-.079 2.7-.975 3.7-1.1-.015.45-.189.518-.126.929l.258 1.163c-.675.193-2.147 1.473-2.086 2.364l2.578-1.73a22.469 22.469 0 0 1 1.95 1.578c.958.747 1.58.578 2.555 1.129a19.948 19.948 0 0 0 6.012 1.38l1.353-.065c.832-.04 2.529-1.3 2.783-1.315l.451-.022a6.328 6.328 0 0 0-.092.923l.017.262a2.637 2.637 0 0 0 1.332 2.039 9.9 9.9 0 0 0 2.618.79l2.567-.081 7.743-1.464 1.655-.078a20.156 20.156 0 0 1 3.658.611 4.165 4.165 0 0 0 1.68-2.05c-.02-.324-3.489-.755-4.007-.828a15.692 15.692 0 0 1-3.756-1.073c-.988-.361-6.451-2.915-6.725-2.902z" class="prefix__cls-11" data-name="Path 13605" transform="translate(-171.666 -587.925)"/>
                <path id="prefix__Path_13606" d="M201.533 642.025c1.889-.09 3.6 1.986 3.708 3.759.03.465-.008 1.05-.536 1.075-2.74.132-6.674-2.118-7.918-3.556l.3-.392c1.36-.081 2.566-.8 3.7-.85l.752-.036zm-5.773-.641c-.116-1.818 1-.381.945-1.751l-.6.029c-.961.046-1.127.316-2.089.363l-.6.029c-1.732.082-3.064-.745-3.157-2.211l-.075-1.177c-.141-2.232 5.691-6.877 7.169-8.717a25.533 25.533 0 0 1 1.915-2.115c.688-.7.985-1.392 1.82-2.189a21.685 21.685 0 0 0 2.889-4.962 9.525 9.525 0 0 0-1.061-.079l-.9.043a2.067 2.067 0 0 0-1.588 1.126 2.429 2.429 0 0 1 .744-.167c.246-.012.456.057.468.24.075 1.2-5.747 8.019-6.853 9.089-1.6 1.548-7.233 6.668-7.091 8.9l.083 1.308c.105 1.659 1.871 2.535 3.926 2.436.878-.042 1.281-.308 2.089-.362-.108.533-.41.675-.376 1.2l.033.523a6.384 6.384 0 0 0 .209.909c-.681.357-1.964 1.126-1.99 1.931l2.546-1.423.087.117c.653 1.736 6.3 4.29 9.013 4.16a30.74 30.74 0 0 0 2.915-1.212 3.968 3.968 0 0 0 1.531-2.413c-.189-2.978-1.964-4.066-5.165-4.3a17.329 17.329 0 0 0-4.027.869c-1.548.622-2.694 1.622-2.81-.194z" class="prefix__cls-11" data-name="Path 13606" transform="translate(-159.986 -582.181)"/>
                <path id="prefix__Path_13607" d="M159.819 587.059c-1.984 2.161-4.712 5.03-5.155 5.052-1.167.056-4.737-3-5.086-3.926l1.4.432c1.962-.063 6.2.433 6.02-2.362l-.116-1.832c-.138-2.175-1.9-3-3.745-3.584a19.766 19.766 0 0 0-6.654-1.034c-.1-1.531 1.153-1.667 1.939-2.718-.782-.9-4.6-1.206-4.768-3.838-.079-1.239.589-1.374 1.212-2.289.925.476 4.661 3.2 5.644 3.961 1.193.93 4.287 3.466 4.435 5.134.54.082 2.907.642 2.857-.137-.006-.089-1.676-2.64-1.769-4.114l-.346-.362a18.314 18.314 0 0 0-.741-3.026c-.262-1.071-.18-2.156-.482-3.282-.589-2.2.137-1-1.275-2.511a3.681 3.681 0 0 0-3.241-1.156c-1.13.055.228.96.36 1.178 1.377 2.274 1.772 4.868 2.263 7.36a38.892 38.892 0 0 1-3.638-2.551c-1.478-1.153-2.492-1.841-2.611-3.712-.062-.979.967-1.4.945-1.752-.048-.748-4.3-1.194-4.435-3.33l-.042-.66c-.1-1.521 1.523-2.151 1.438-3.481-.16-2.541-7.321-3.664-7.391-4.762-.191-3.014 6.593-2.4 8.565-2.9-.195-.578-.436-.635-1.245-.6l-3.008.143c-2.339.112-8.894 1.786-6.8 3.974.932.976 6.894 2.184 7.01 4.021.1 1.592-1.665 2.277-1.547 4.142.173 2.721 3.772 2.283 5.22 3.818a2.255 2.255 0 0 0-1.538 1.91c.067 1.052.475 1.264.726 1.934-1.477.1-3.64 2.069-3.552 3.451.053.835 1.323 2.134 1.932 2.567.9.645 2.681.56 2.995 1.4-2.346.667-2.311 3.492-1.141 5.414.746 1.224 2.772 3.959 3.325 5.241a19.62 19.62 0 0 0 2.39 2.957c4.132 4.338 7.918-.2 10.869-3.131a2.075 2.075 0 0 1-1.219-1.039zm-13.1-5.954l-.025-.393c2.523.062 7.317 1.216 7.459 3.448.06.942.605 3.174-.828 3.583l-.181-.127c-1.944-.043-6.307-4.599-6.428-6.51z" class="prefix__cls-11" data-name="Path 13607" transform="translate(-133.604 -548.634)"/>
                <path id="prefix__Path_13608" d="M445.273 549.471a5.294 5.294 0 0 0-2.084.268 8.5 8.5 0 0 1-2.157-.7c-.153-.038-.226-.106-.225-.14 0-.067.081-.1.237-.159.31-.091 1.166-.364 2.525-.756 1.437-.422 2.293-.7 2.64-.752a2.191 2.191 0 0 1 .541-.084q.575.019-.731.979c-.119.063-.081.1.149.1.077 0 2.8-.078 8.145-.245s8.336-.239 9.025-.217a16.71 16.71 0 0 1 5.371.97c.3.143.527.216.678.288.186.139.222.208.069.2a3.544 3.544 0 0 1-1-.065c-.686-.088-1.529-.148-2.448-.177-.844-.027-4.339.064-10.446.239s-9.566.268-10.293.244z" class="prefix__cls-11" data-name="Path 13608" transform="translate(-284.226 -547.11)"/>
                <path id="prefix__Path_13609" d="M418.857 619.1a5.279 5.279 0 0 0-1.955-.76 7.927 7.927 0 0 1-1.493-1.626c-.111-.1-.138-.2-.118-.227.038-.055.123-.045.291-.023.319.07 1.21.241 2.6.553 1.477.322 2.369.494 2.7.611a2.182 2.182 0 0 1 .516.186c.326.193-.062.355-1.164.49-.137 0-.124.045.072.16.066.039 2.479 1.265 7.206 3.661s7.369 3.755 7.956 4.1a15.681 15.681 0 0 1 4.138 3.381c.185.265.342.435.434.569.086.208.079.283-.05.206a3.367 3.367 0 0 1-.83-.529c-.549-.4-1.248-.853-2.031-1.315-.718-.424-3.8-2.007-9.2-4.758s-8.452-4.316-9.072-4.682z" class="prefix__cls-11" data-name="Path 13609" transform="translate(-271.699 -581.123)"/>
                <path id="prefix__Path_13610" d="M345.754 679.6a11.09 11.09 0 0 1-.575-7.209c.13-.463.253-.726.356-.757a.131.131 0 0 1 .086.074 2 2 0 0 1 0 .722 11.683 11.683 0 0 0 .418 5.535 5.32 5.32 0 0 0 2.33 2.733 6.182 6.182 0 0 0 4.994.3 16.151 16.151 0 0 0 4.919-2.743 33.579 33.579 0 0 0 4.046-3.626c1.128-1.19 1.664-1.852 1.594-2.031-.081-.2-1.195-.261-3.349-.129-1.488.078-2.977.157-4.455.259-.377-.011-.584-.172-.615-.461-.047-.261-.1-.67-.159-1.249.047-.314.1-.531.2-.584 1.23-.723 1.94-1.163 2.169-1.308a6.667 6.667 0 0 0 2.121-2.142 11.079 11.079 0 0 0-1.671-1.164 27.565 27.565 0 0 1-2.755-1.93c-.347-.367-.774-.787-1.262-1.286a.842.842 0 0 0-.492-.226c-.155-.028-.232-.079-.242-.175l-.217-1.681c-.029-.289.106-.381.406-.272l2.973 1.19c.172.073.286.138.312.2.036.089-.1.18-.33.25a4.769 4.769 0 0 1-1.024.162 4.5 4.5 0 0 0 .747.572c.544.357 1.081.693 1.626 1.051a10.824 10.824 0 0 1 1.569 1.194 3.96 3.96 0 0 1 .88 1.4 3.75 3.75 0 0 1 .333 2.543 6.535 6.535 0 0 1-.726 1.282 21.965 21.965 0 0 1 3 .022 1.941 1.941 0 0 1 1.705 1.1 3.43 3.43 0 0 1 .105 1.689 5.819 5.819 0 0 1-.792 2.311 21.1 21.1 0 0 1-4.473 4.7 18.362 18.362 0 0 1-5.608 3.452 6.147 6.147 0 0 1-8.142-3.784z" class="prefix__cls-11" data-name="Path 13610" transform="translate(-237.112 -602.603)"/>
                <path id="prefix__Path_13611" d="M337.16 674.827a9.126 9.126 0 0 1-1.488 5.627 3.538 3.538 0 0 1-2.909 1.745v-2.475a4.555 4.555 0 0 0 2.651-.9 3.712 3.712 0 0 0 .323-2.025c0-.732-.128-4.113-.452-8s-.453-6.189-.453-6.865a4.176 4.176 0 0 0-.453-1.969 7.771 7.771 0 0 1 .775-2.082c.066-.112.13-.169.194-.169s.13.057.194.169c.129.282.517 1.07 1.036 2.364.582 1.294.9 2.138 1.034 2.42a2.927 2.927 0 0 1 .129.562c0 .338-.452.114-1.228-.675-.13-.112-.13-.056-.13.113 0 .056.13 1.688.389 4.952s.388 6.363.388 7.207z" class="prefix__cls-11" data-name="Path 13611" transform="translate(-231.194 -601.382)"/>
                <path id="prefix__Path_13612" d="M304.369 678.242a12.226 12.226 0 0 1-.453 2.306 5.717 5.717 0 0 1-.452-1.912c-.324-2.026-2.069-4.333-5.173-6.921a96.273 96.273 0 0 1-8.343-7.54c-.453-.563-1.034-1.294-1.811-2.25a3.084 3.084 0 0 0-.776-.731.332.332 0 0 1-.194-.338v-1.688c0-.282.065-.507.194-.507.065 0 .194.113.453.282l3.622 2.362c.323.226.453.339.453.451 0 .057-.129.114-.323.114a6.191 6.191 0 0 1-1.488-.226 41.409 41.409 0 0 0 4.268 4.051l4.979 4.331c3.363 2.984 5.045 5.515 5.045 7.653v.563zm1.211-12.559c.517 3.432.406 4.85.406 9.408a8.676 8.676 0 0 1-4.786 7.99c-2.845 1.518-4.915 2.644-6.208 3.264-.259.112-.388.225-.388.28 0 .113.129.113.388.057a20.777 20.777 0 0 0 3.1-.506 27.508 27.508 0 0 0 2.91-.844 9.708 9.708 0 0 0 3.88-2.926 11.717 11.717 0 0 0 1.552-4.333 6.094 6.094 0 0 0 .84 3.038 3.3 3.3 0 0 0 3.1 1.463V680.1a2.675 2.675 0 0 1-1.487-.338 3.226 3.226 0 0 1-1.035-1.97 39.707 39.707 0 0 1-.453-6.414 54.212 54.212 0 0 0-.212-5.919 33.309 33.309 0 0 0-1.552-6.7c-.064-.169-.129-.281-.195-.281s-.129.112-.193.281a10.511 10.511 0 0 0-.453 2.138c.397 2.085.655 3.66.785 4.786z" class="prefix__cls-11" data-name="Path 13612" transform="translate(-208.814 -601.757)"/>
                <path id="prefix__Path_13613" d="M190.624 614.124a4.008 4.008 0 0 0 1.11-1.558 8.167 8.167 0 0 1 2.01-.98c.132-.076.24-.08.268-.057.057.045.034.117-.013.261-.122.264-.434 1.009-.97 2.165-.558 1.227-.871 1.972-1.046 2.239a1.656 1.656 0 0 1-.276.412q-.388.371-.386-1.118c.021-.118-.033-.116-.188.032-.052.05-1.743 1.914-5.048 5.567s-5.177 5.691-5.641 6.134a14.713 14.713 0 0 1-4.321 2.94c-.32.107-.532.211-.691.264-.242.034-.325.013-.222-.085a2.879 2.879 0 0 1 .7-.619 21.731 21.731 0 0 0 1.737-1.512c.568-.542 2.747-2.922 6.54-7.093s5.947-6.524 6.437-6.993z" class="prefix__cls-11" data-name="Path 13613" transform="translate(-153.84 -578.706)"/>
                <path id="prefix__Path_13614" d="M398.65 645.731a1.789 1.789 0 0 0 .032-1.059c-1.58.178-3.786.784-4.075 2.379-.1 1.124-1.408-1.4-1.479-1.512-.172-.246.031-.965.668-2.117 1.377-2.523 3.585-5.229 6.815-6.048.514-.116.774-.183.976.274l.74 1.357q-.42 1.126-1.049 3.142a4.442 4.442 0 0 0 3.893-4.087c-.008-.262-.515-.734-1.459-1.371-.608-.412-1.423-.886-5.8-3.417a55.017 55.017 0 0 1-5.156-3.15 4.929 4.929 0 0 0-1.905-.817c-.329-.223-1.5-1.758-1.344-1.935.023-.027 1.576.307 2.875.659 1.459.387 2.32.627 2.64.758a2 2 0 0 1 .5.208c.335.226-.117.349-1.237.4-.164.018-.157.065.025.189.03.021-.473-.271 3.339 1.963 2.262 1.305 3.021 1.625 5.172 3.079a10.189 10.189 0 0 1 3.918 4.19 2.572 2.572 0 0 1-.232 2.882 6.989 6.989 0 0 1-1.995 1.688 9.677 9.677 0 0 1-3.245.91c-.8 6.87-10.176 13.2-16.823 14.09.522 2.331.654 3.5-.461 5.858-1.1 2.317-3.319 5.608-6.5 5.76-3.155.152-5.51-2.708-5.911-5.226a.784.784 0 0 0-.227.082 1.954 1.954 0 0 0-.949-2.093 1.649 1.649 0 0 0 .684-.984 1.455 1.455 0 0 0 .522-.21 3.743 3.743 0 0 0 .609 2.571c-1.1 1.121 2.256 3.775 3.627 3.709 2.68-.129 3.973-1.367 5.355-3.166.653-.849 2.636-4.031 2.561-5.219-.038-.6-1.781-1.582-2.425-1.81-.59-.209-1.22-.174-1.492-.634a4.851 4.851 0 0 1-.593-2.063c2.022-.1 2.789 1.309 4.754 1.215 5.493-.152 13.057-5.48 14.651-10.448zm-2.144-13.076l-.625-.224v.15c.209.019.417.044.625.074zm3.151 7.756a5.878 5.878 0 0 0-2.883 2.629 12.517 12.517 0 0 1 2.383-.486 13.711 13.711 0 0 1 .501-2.144z" class="prefix__cls-11" data-name="Path 13614" transform="translate(-249.667 -586.486)"/>
                <path id="prefix__Path_13615" d="M360.224 709.15l.853-1.189a.27.27 0 0 1 .23-.135 9.585 9.585 0 0 1 1.445.584 5.153 5.153 0 0 1 1.248.7c0 .269-.361.808-1.118 1.638-.1.09-.164.112-.262.068-.755-.359-1.576-.763-2.5-1.166a11.315 11.315 0 0 1-.921 1.211.237.237 0 0 1-.294.091c-.855-.45-1.709-.831-2.595-1.235-.066-.022-.066-.066 0-.134l1.083-1.5a.265.265 0 0 1 .2-.134 8.637 8.637 0 0 1 1.215.493c.722.337 1.182.583 1.412.718z" class="prefix__cls-11" data-name="Path 13615" transform="translate(-242.731 -625.978)"/>
                <path id="prefix__Path_13616" d="M375.077 659.428c-.032-.027-.032-.08 0-.16l1.014-1.793q.091-.16.184-.16a7.916 7.916 0 0 1 1.352.7c.8.481 1.2.749 1.2.857a5.539 5.539 0 0 1-1.044 1.926c-.093.134-.185.161-.276.107a27.141 27.141 0 0 0-2.429-1.472z" class="prefix__cls-11" data-name="Path 13616" transform="translate(-251.952 -601.185)"/>
                <path id="prefix__Path_13617" d="M288.073 679.5c-.031-.027-.031-.081 0-.161l1.014-1.792c.062-.108.123-.16.184-.16a7.871 7.871 0 0 1 1.353.7c.8.482 1.2.75 1.2.856a5.536 5.536 0 0 1-1.045 1.926c-.092.134-.185.161-.277.107a26.458 26.458 0 0 0-2.428-1.472z" class="prefix__cls-11" data-name="Path 13617" transform="translate(-209.247 -611.039)"/>
                <path id="prefix__Path_13618" d="M270.988 669.76l1.35-.988a.32.32 0 0 1 .291-.072 9.185 9.185 0 0 1 1.279 1.03c.7.661 1.057 1.02 1.031 1.091-.1.28-.689.735-1.8 1.378-.137.065-.214.068-.3-.007-.647-.6-1.346-1.257-2.147-1.947a13.74 13.74 0 0 1-1.427.992c-.146.089-.257.083-.342.007-.715-.717-1.457-1.365-2.225-2.045-.06-.043-.042-.09.052-.14l1.711-1.248a.317.317 0 0 1 .257-.083 8.409 8.409 0 0 1 1.074.87c.623.562 1.006.954 1.193 1.161z" class="prefix__cls-11" data-name="Path 13618" transform="translate(-198.752 -606.294)"/>
                <path id="prefix__Path_13619" d="M226.808 637.852l1.349-.988a.323.323 0 0 1 .291-.073 9.353 9.353 0 0 1 1.279 1.032c.7.661 1.057 1.019 1.031 1.09-.1.28-.688.735-1.8 1.379-.137.064-.214.068-.3-.007-.647-.6-1.346-1.256-2.148-1.946a14.039 14.039 0 0 1-1.426.992.269.269 0 0 1-.342.007c-.715-.718-1.458-1.365-2.224-2.045q-.089-.064.052-.14l1.71-1.248a.32.32 0 0 1 .258-.083 8.441 8.441 0 0 1 1.074.87c.622.562 1.006.954 1.193 1.161z" class="prefix__cls-11" data-name="Path 13619" transform="translate(-177.067 -590.632)"/>
                <path id="prefix__Path_13620" d="M135.879 573.791l1.713.365c.129.029.206.073.24.161a7.42 7.42 0 0 1-.2 1.508 4.275 4.275 0 0 1-.4 1.367 5.6 5.6 0 0 1-2.339-.449c-.141-.058-.19-.11-.171-.214.17-.807.371-1.687.538-2.657a15.673 15.673 0 0 1-1.763-.416c-.166-.051-.228-.132-.208-.237.243-.926.407-1.829.585-2.769 0-.067.058-.082.161-.046l2.168.465q.195.042.228.131a6.6 6.6 0 0 1-.173 1.269 14.826 14.826 0 0 1-.374 1.522z" class="prefix__cls-11" data-name="Path 13620" transform="translate(-133.281 -558.516)"/>
                <path id="prefix__Path_13621" d="M162.783 560.1l1.763.065a.306.306 0 0 1 .271.117 7.359 7.359 0 0 1 .143 1.513 4.148 4.148 0 0 1-.087 1.409 5.693 5.693 0 0 1-2.395-.04c-.151-.033-.212-.076-.216-.182-.015-.818-.017-1.716-.072-2.7a15.8 15.8 0 0 1-1.822-.107c-.176-.02-.254-.089-.258-.2.03-.95-.015-1.863-.051-2.816-.011-.067.038-.09.147-.072l2.23.085q.2.009.254.09a6.667 6.667 0 0 1 .116 1.273 14.485 14.485 0 0 1-.023 1.558z" class="prefix__cls-11" data-name="Path 13621" transform="translate(-146.424 -551.988)"/>
                <path id="prefix__Path_13622" d="M452.88 581.661c-.353-3.8-.511-3.615-.95-7.865a.925.925 0 0 1 .03-.385c.053-.027.179 0 .366.125a3.735 3.735 0 0 1 .962.813c.337 3.562.617 3.561 1.327 8.384a9.648 9.648 0 0 1-1.736-1.072z" class="prefix__cls-11" data-name="Path 13622" transform="translate(-289.683 -559.997)"/>
                <path id="prefix__Path_13623" d="M394.608 652.969c3.494-4.129 7.194-8.439 11.093-13.044.178-.224.34-.378.414-.362s.158.143.2.414a4.356 4.356 0 0 1 .044 1.571q-4.943 5.752-11.3 13.819a10.024 10.024 0 0 1-.45-2.4z" class="prefix__cls-11" data-name="Path 13623" transform="translate(-261.55 -592.471)"/>
                <path id="prefix__Path_13624" d="M383.643 659.041c2.511-2.968 5.172-6.067 7.976-9.378.129-.161.244-.271.3-.262s.113.1.145.3a3.15 3.15 0 0 1 .032 1.131c-2.369 2.757-5.084 6.058-8.128 9.936a7.208 7.208 0 0 1-.323-1.726z" class="prefix__cls-11" data-name="Path 13624" transform="translate(-256.168 -597.301)"/>
                <path id="prefix__Path_13625" d="M347.622 672.352a.693.693 0 0 1 .141-.183c.047-.021.071-.021.071.02v.205c-.4 1.939-1.08 2.9-1.994 2.9-1.009 0-1.478-.714-1.478-2.122a10.675 10.675 0 0 1 1.736-5.532c.281-.49.469-.715.54-.735l.023.02a4.259 4.259 0 0 1-.258.8 14.268 14.268 0 0 0-1.15 4.226c0 1.123.353 1.654 1.033 1.654.4 0 .844-.429 1.337-1.246z" class="prefix__cls-11" data-name="Path 13625" transform="translate(-236.887 -605.891)"/>
                <path id="prefix__Path_13626" d="M304.058 659.3a2.376 2.376 0 0 1 1.807 1.048 6.3 6.3 0 0 1 1.135 2.71.976.976 0 0 0 .035.216c0 .031.036.031.036 0a.734.734 0 0 1 .106-.216 22.354 22.354 0 0 1 .78-2.989c.461-.956.957-1.45 1.523-1.45a1.256 1.256 0 0 1 .815.494 1.159 1.159 0 0 1 .354.709 1.846 1.846 0 0 1-.106.524c-.106.307-.247.431-.389.431-.071 0-.213-.093-.39-.308a.88.88 0 0 0-.638-.37c-.5 0-.957.987-1.346 2.99a5.141 5.141 0 0 1-.6 1.818c-.142.246-.284.37-.39.37s-.142-.123-.142-.339a6.035 6.035 0 0 0-.673-2c-.461-1.017-.814-1.51-.992-1.51-.142 0-.213.031-.247.093-.036.092-.143.122-.319.122a1.349 1.349 0 0 1-.814-.4c-.319-.247-.5-.462-.5-.617a2.851 2.851 0 0 1 .425-.709c.284-.431.461-.615.532-.615z" class="prefix__cls-11" data-name="Path 13626" transform="translate(-216.636 -601.825)"/>
                <path id="prefix__Path_13627" d="M178.814 556.469a3.84 3.84 0 0 1-1.336-.215q-.884-.31-.9-.818c-.022-.563.384-.94 1.216-1.19-1.11-.25-1.678-.683-1.705-1.387a.843.843 0 0 1 .427-.688 2.508 2.508 0 0 1 1.377-.378l1.357-.041c.1 0 .159-.061.219-.2.028-.113.123-.173.349-.18a1.462 1.462 0 0 1 .884.285c.235.19.37.355.374.468s-.283.2-.864.222a2.851 2.851 0 0 1-.78-.062 4.6 4.6 0 0 0-.551-.04 2.723 2.723 0 0 0-.931.2q-.477.225-.465.52a1.042 1.042 0 0 0 .416.72 1.408 1.408 0 0 0 .951.311 5.868 5.868 0 0 0 1.093-.2 4.724 4.724 0 0 1 .932-.168 1.143 1.143 0 0 1 .491.126c.262.077.393.129.4.186 0 .083-.348.207-.989.367a8.92 8.92 0 0 1-1.479.268c-.937.027-1.379.322-1.354.969.01.254.146.419.472.493a5.82 5.82 0 0 1 2.458-.889 1.923 1.923 0 0 1 .88.2c.166.079.265.132.267.189 0 .028-.095.059-.32.094a3.587 3.587 0 0 0-.738.163c-.033 0-.416.124-1.15.4a2.969 2.969 0 0 1-.992.283z" class="prefix__cls-11" data-name="Path 13627" transform="translate(-154.29 -549.183)"/>
                <path id="prefix__Path_13628" d="M240.589 669.981c4.35.461 4.172.289 9.046.768a1.258 1.258 0 0 1 .427.1c.02.05-.039.151-.214.287a4.072 4.072 0 0 1-1.108.657c-4.078-.427-4.133-.188-9.707-.549a9.108 9.108 0 0 1 1.556-1.266z" class="prefix__cls-11" data-name="Path 13628" transform="translate(-185.188 -607.402)"/>
                <path id="prefix__Path_13629" d="M267.859 650.76a2.008 2.008 0 0 1 1.091 1.634 6 6 0 0 1-.357 2.87.934.934 0 0 0-.078.207c-.016.028.016.042.032.014a.861.861 0 0 1 .2-.153 26.21 26.21 0 0 1 2.215-2.383c.9-.681 1.593-.934 2.1-.716a1.052 1.052 0 0 1 .481.755 1.086 1.086 0 0 1-.041.772 2.149 2.149 0 0 1-.36.43c-.252.236-.441.292-.569.238-.064-.027-.145-.165-.194-.426a.738.738 0 0 0-.385-.576c-.445-.191-1.358.518-2.724 2.167a6.065 6.065 0 0 1-1.462 1.4c-.252.167-.442.224-.537.183s-.065-.165.044-.359a5.912 5.912 0 0 0 .412-2.056c.1-1.089.035-1.668-.125-1.736-.127-.055-.207-.054-.269-.012-.078.069-.19.056-.349-.011a1.149 1.149 0 0 1-.528-.673c-.161-.344-.211-.606-.132-.744a3.411 3.411 0 0 1 .74-.472c.474-.279.727-.377.79-.35z" class="prefix__cls-11" data-name="Path 13629" transform="translate(-198.568 -597.965)"/>
                <path id="prefix__Path_13630" d="M203.643 644.809a1.547 1.547 0 0 1 .346 1.571 5.5 5.5 0 0 1-1.209 2.206.916.916 0 0 0-.128.146c-.022.019 0 .037.02.019a.861.861 0 0 1 .213-.072 25.452 25.452 0 0 1 2.536-1.366c.936-.325 1.573-.358 1.909-.06a.81.81 0 0 1 .142.72.984.984 0 0 1-.282.607 2.014 2.014 0 0 1-.427.255c-.277.127-.447.126-.531.052-.043-.037-.062-.166-.017-.388a.571.571 0 0 0-.122-.554c-.295-.26-1.253.083-2.874 1.068a5.835 5.835 0 0 1-1.619.763c-.255.073-.425.071-.488.015s0-.147.151-.275a5.516 5.516 0 0 0 .99-1.542c.432-.846.564-1.326.459-1.418-.084-.075-.148-.094-.211-.075-.085.036-.17 0-.274-.1a.861.861 0 0 1-.206-.666.8.8 0 0 1 .133-.626 3.159 3.159 0 0 1 .743-.2c.468-.108.7-.124.743-.087z" class="prefix__cls-11" data-name="Path 13630" transform="translate(-166.564 -595.038)"/>
                <path id="prefix__Path_13631" d="M191.658 603.086a4 4 0 0 0 1.111-1.557c.269-.258 2.541-1.622 2.265-.777a32.465 32.465 0 0 1-2.017 4.4 1.679 1.679 0 0 1-.275.414c-.564.538-.015-1.621-.574-1.087-.052.049-1.559 1.913-4.864 5.567q-2.219 2.452-3.577 3.937a2.134 2.134 0 0 0-1-1.063c2.982-3.268 5.711-6.751 8.931-9.834z" class="prefix__cls-11" data-name="Path 13631" transform="translate(-157.55 -573.288)"/>
                <path id="prefix__Path_13632" d="M189.19 593.791c.322-.187.418-.972.278-2.309a5.017 5.017 0 0 0-2.147.6c-.322.188-.4.393-.161.7a2.694 2.694 0 0 0 .934.672 3.541 3.541 0 0 0 1.1.337zm3.552-3.562a.867.867 0 0 1 .783.234.147.147 0 0 1-.053.234.259.259 0 0 1-.15.047c-.633.084-1.278.215-1.954.365-.1 1.514-.59 2.447-1.469 2.878a5.348 5.348 0 0 1-1.943.682 2.881 2.881 0 0 1-2.245-1.045c-.494-.644-.312-1.2.59-1.719a2.676 2.676 0 0 1 .655-.3 20.83 20.83 0 0 1 5.787-1.376z" class="prefix__cls-11" data-name="Path 13632" transform="translate(-158.884 -568.255)"/>
                <path id="prefix__Path_13633" d="M438.392 667.613a12.587 12.587 0 0 0 1.211-2.854c.109-.323.164-.485.191-.459a1.691 1.691 0 0 1 .056.538 6.549 6.549 0 0 1-1.008 3.854 1.441 1.441 0 0 1-.786.742.768.768 0 0 1-.84-.221 5.724 5.724 0 0 1-1.428-3.045c-.5.482-.953.528-1.328.165a3.52 3.52 0 0 1-.694-1.8 3.251 3.251 0 0 1 .093-1.842.306.306 0 0 1 .277-.107.822.822 0 0 1 .4.174 2.061 2.061 0 0 1 .184.608c.106.316.126.5.078.5a.368.368 0 0 0-.54.122 1.175 1.175 0 0 0-.031.614 1.21 1.21 0 0 0 .231.6c.37.088.729-.154 1.015-.63a2.318 2.318 0 0 0 .1-1.082c-.033-.3-.07-.658-.088-1.05.013-.095.062-.1.195.028a2.509 2.509 0 0 1 .638 1.26 11.345 11.345 0 0 0 .517 4.2 1.184 1.184 0 0 0 .294.5c.325.319.731.066 1.263-.815z" class="prefix__cls-11" data-name="Path 13633" transform="translate(-280.735 -603.669)"/>
                <path id="prefix__Path_13634" d="M441.983 601.033a7.923 7.923 0 0 1-.959.385c-.2.188-1 .3-.467.7 1.065 1.251 1.4 3.051 1.844 4.64.419 2.168.888 4.345 1.126 6.49l-.157-.028c-1.1-3.445-1.463-6.865-2.7-10.264a2.811 2.811 0 0 0-.574-.9c-.7.345-1.234 1.472-2.249.91-.7-.677-1.857-1.326-1.516-2.4.453-.623 1.334-.214 1.957-.121.472.084.69.432 1.041.643a3.51 3.51 0 0 1 1.987-.753c.282.193.719.361.672.7zm-3.039.275a8.264 8.264 0 0 0-.867-.2c-.308-.035-.736.021-.8.347a.931.931 0 0 0 .368.8 3.707 3.707 0 0 0 1.299-.947z" class="prefix__cls-11" data-name="Path 13634" transform="translate(-281.997 -573.166)"/>
                <path id="prefix__Path_13635" d="M351.451 663.394c-.154.269-.257.4-.36.4s-.1-.179-.051-.492a3.385 3.385 0 0 0 .1-1.119c0-1.433-.926-2.91-2.83-4.389-.154-.09-.154-.179-.051-.313l.514-.85a.258.258 0 0 1 .257 0 5.624 5.624 0 0 1 2.779 4.925 4.237 4.237 0 0 1-.36 1.835z" class="prefix__cls-11" data-name="Path 13635" transform="translate(-238.766 -600.834)"/>
                <path id="prefix__Path_13636" d="M289.981 713.6a6.033 6.033 0 0 1-3.205 1.555 2.494 2.494 0 0 1-1.177 0 .845.845 0 0 1-.625-.519 1.536 1.536 0 0 1 .331-1.437c.393-.472.765-.958 1.166-1.451.083-.1.018-.154-.162-.166a5.633 5.633 0 0 0-1.3.119 2.483 2.483 0 0 0-.76.309c-.062.032-.1.05-.106.032-.031 0-.027-.034-.033-.092a1.352 1.352 0 0 1 .355-.7 2.116 2.116 0 0 1 .99-.406c1.056-.22 1.654-.154 1.779.2.092.26-.116.713-.63 1.34-.365.425-.724.869-1.085 1.3-.154.232-.2.4-.151.531.106.3.652.344 1.626.141a13.941 13.941 0 0 0 2.81-.924c.268-.115.4-.153.408-.134s-.073.125-.233.3z" class="prefix__cls-11" data-name="Path 13636" transform="translate(-207.315 -627.398)"/>
                <path id="prefix__Path_13637" d="M436.952 636.489a.681.681 0 0 1-.1-.2c.005-.046.018-.063.058-.041l.2.111c1.656 1.343 2.213 2.361 1.717 3.03-.548.737-1.492.692-2.852-.072a12.626 12.626 0 0 1-4.4-4.271c-.32-.472-.434-.73-.416-.793l.033-.006a4.873 4.873 0 0 1 .628.621 17.29 17.29 0 0 0 3.452 3.132c1.084.61 1.788.641 2.157.143.216-.291.044-.85-.477-1.653z" class="prefix__cls-11" data-name="Path 13637" transform="translate(-279.488 -589.862)"/>
                <path id="prefix__Path_13638" d="M423.439 605.394a2.125 2.125 0 0 1 1.674-.8 7.847 7.847 0 0 1 2.892.33 1.3 1.3 0 0 0 .208.064c.027.012.041-.012.015-.023a.757.757 0 0 1-.151-.16 25.128 25.128 0 0 1-2.366-1.741c-.671-.7-.911-1.237-.682-1.622a1.126 1.126 0 0 1 .772-.353 1.428 1.428 0 0 1 .78.046 2.136 2.136 0 0 1 .427.286c.234.2.287.343.229.44-.028.048-.169.106-.434.139a.778.778 0 0 0-.589.284c-.2.336.494 1.049 2.134 2.126a5.471 5.471 0 0 1 1.388 1.147c.163.2.216.342.173.414s-.169.047-.362-.042a7.686 7.686 0 0 0-2.07-.355c-1.1-.1-1.685-.06-1.757.062-.057.1-.059.156-.016.206.067.06.051.145-.02.266a1.138 1.138 0 0 1-.69.391 1.216 1.216 0 0 1-.753.088 2.668 2.668 0 0 1-.464-.577c-.272-.367-.365-.562-.338-.61z" class="prefix__cls-11" data-name="Path 13638" transform="translate(-275.699 -573.571)"/>
                <path id="prefix__Path_13639" d="M316.864 675.172a.349.349 0 0 1 .042-.131c.022-.02.035-.024.044 0s.029.071.046.118c.207 1.2.028 1.875-.506 2.032-.588.173-1.022-.163-1.342-.983a6.381 6.381 0 0 1-.241-3.522 1.174 1.174 0 0 1 .148-.521l.018.008a2.563 2.563 0 0 1 .031.508 8.636 8.636 0 0 0 .285 2.66c.254.655.581.9.976.786.232-.067.4-.394.5-.955z" class="prefix__cls-11" data-name="Path 13639" transform="translate(-222.364 -608.473)"/>
                <path id="prefix__Path_13640" d="M158.372 549.418a.748.748 0 0 1 .191.08c.025.032.028.049-.011.054l-.2.022c-1.9-.067-2.895-.45-3-1.113-.115-.73.514-1.152 1.861-1.312a13.014 13.014 0 0 1 5.487.625 2.2 2.2 0 0 1 .764.307l-.017.019a5.106 5.106 0 0 1-.79-.1 17.7 17.7 0 0 0-4.171-.351c-1.074.128-1.541.443-1.463.936.046.288.506.562 1.343.826z" class="prefix__cls-11" data-name="Path 13640" transform="translate(-144.111 -547.075)"/>
                <path id="prefix__Path_13641" d="M185.364 567.995c.148.571-.14 1.134-.775 1.765a8.065 8.065 0 0 1-2.789 1.562 1.329 1.329 0 0 0-.234.078c-.034.007-.026.037.008.03a1.073 1.073 0 0 1 .265.043 33.382 33.382 0 0 1 3.523 0c1.173.179 1.835.49 1.961.972.056.21-.09.491-.372.8a1.439 1.439 0 0 1-.717.457 2.721 2.721 0 0 1-.611.026c-.369-.022-.538-.116-.569-.235-.016-.061.056-.2.259-.4q.344-.352.274-.623c-.11-.421-1.317-.593-3.649-.48a7.467 7.467 0 0 1-2.172-.108c-.308-.066-.478-.159-.5-.248s.107-.148.349-.2a8.082 8.082 0 0 0 2.1-1.014c1.038-.617 1.513-1.026 1.474-1.177-.031-.12-.081-.173-.159-.19-.111-.01-.17-.093-.209-.243a1.02 1.02 0 0 1 .269-.78c.206-.325.408-.523.581-.557a3.756 3.756 0 0 1 .889.2c.546.145.793.255.809.315z" class="prefix__cls-11" data-name="Path 13641" transform="translate(-155.851 -557.088)"/>
                <path id="prefix__Path_13642" d="M359.262 687.893a.43.43 0 0 1 .04-.131c.024-.02.037-.024.046 0l.047.12c.206 1.2.027 1.874-.505 2.032-.589.172-1.024-.164-1.344-.985a6.391 6.391 0 0 1-.24-3.522 1.179 1.179 0 0 1 .148-.521l.018.008a2.5 2.5 0 0 1 .03.508 8.594 8.594 0 0 0 .287 2.66c.254.654.579.9.977.787.231-.068.394-.394.5-.955z" class="prefix__cls-11" data-name="Path 13642" transform="translate(-243.174 -614.717)"/>
                <path id="prefix__Path_13643" d="M392.032 634.6a2.3 2.3 0 0 1 1.9-.2 7.236 7.236 0 0 1 2.537 1.251 1.142 1.142 0 0 0 .166.126c.021.021.045 0 .024-.017a.624.624 0 0 1-.071-.2 21.519 21.519 0 0 1-1.441-2.387c-.319-.867-.312-1.444.068-1.725a1.22 1.22 0 0 1 .869-.075 1.32 1.32 0 0 1 .7.3 1.814 1.814 0 0 1 .273.4c.131.259.117.412.023.482a.754.754 0 0 1-.463-.013.85.85 0 0 0-.67.07c-.331.246.008 1.134 1.063 2.668a4.723 4.723 0 0 1 .792 1.516c.066.235.052.388-.02.441s-.175-.012-.317-.156a6.89 6.89 0 0 0-1.765-1.007c-.976-.451-1.537-.6-1.655-.517-.1.07-.122.127-.1.186.036.078-.015.152-.133.241a1.267 1.267 0 0 1-.807.136 1.179 1.179 0 0 1-.736-.166 2.3 2.3 0 0 1-.182-.685c-.094-.428-.1-.64-.048-.676z" class="prefix__cls-11" data-name="Path 13643" transform="translate(-260.271 -588.436)"/>
                <path id="prefix__Path_13644" d="M383.23 646.381a.558.558 0 0 1-.042-.194c.015-.039.031-.051.059-.025l.147.13c1.138 1.46 1.39 2.444.8 2.941-.647.549-1.46.346-2.471-.557a10.33 10.33 0 0 1-2.859-4.488 1.741 1.741 0 0 1-.183-.765h.03a4.1 4.1 0 0 1 .406.65 14.153 14.153 0 0 0 2.3 3.333c.806.719 1.412.868 1.849.5.256-.217.234-.734-.037-1.526z" class="prefix__cls-11" data-name="Path 13644" transform="translate(-253.73 -594.367)"/>
                <path id="prefix__Path_13645" d="M446.454 555.69a.746.746 0 0 1-.183-.119c-.019-.037-.018-.056.025-.054l.21.009c1.974.4 2.93.969 2.888 1.681-.045.785-.8 1.118-2.246 1.055a13.49 13.49 0 0 1-5.6-1.6 2.22 2.22 0 0 1-.732-.453l.022-.017a5.272 5.272 0 0 1 .807.236 18.475 18.475 0 0 0 4.289 1.083c1.154.049 1.715-.2 1.744-.73.018-.31-.4-.676-1.219-1.095z" class="prefix__cls-11" data-name="Path 13645" transform="translate(-284.228 -551.219)"/>
                <path id="prefix__Path_13646" d="M437.352 615.682a.451.451 0 0 1-.091-.114c0-.028 0-.04.03-.031l.136.048c1.2.646 1.688 1.211 1.477 1.674-.231.51-.817.583-1.756.259a8.519 8.519 0 0 1-3.3-2.149c-.262-.255-.369-.4-.367-.442l.019-.007a3.391 3.391 0 0 1 .473.313 11.663 11.663 0 0 0 2.557 1.552c.748.259 1.184.2 1.34-.141.093-.2-.091-.525-.523-.963z" class="prefix__cls-11" data-name="Path 13646" transform="translate(-280.633 -580.376)"/>
                <path id="prefix__Path_13647" d="M440.763 580.912a.475.475 0 0 1-.09-.114c0-.029 0-.041.029-.031l.137.047c1.2.648 1.686 1.212 1.477 1.674-.233.51-.817.583-1.758.26a8.524 8.524 0 0 1-3.293-2.149c-.263-.256-.37-.4-.368-.441l.019-.007a3.365 3.365 0 0 1 .473.314 11.7 11.7 0 0 0 2.557 1.552c.749.257 1.184.2 1.34-.143.092-.2-.091-.525-.524-.961z" class="prefix__cls-11" data-name="Path 13647" transform="translate(-282.308 -563.31)"/>
                <path id="prefix__Path_13648" d="M183.969 647.739a.556.556 0 0 1 .155-.029c.031.008.041.017.021.036l-.1.091c-1.148.719-1.932.892-2.343.545-.453-.381-.306-.879.4-1.512a8.83 8.83 0 0 1 3.542-1.824 1.722 1.722 0 0 1 .61-.125v.018a3.6 3.6 0 0 1-.514.259 11.807 11.807 0 0 0-2.627 1.461c-.561.5-.668.875-.364 1.133.179.151.594.127 1.222-.053z" class="prefix__cls-11" data-name="Path 13648" transform="translate(-156.92 -595.099)"/>
                <path id="prefix__Path_13649" d="M175.2 638.409a.6.6 0 0 1 .155-.029c.032.009.042.018.021.036l-.1.091c-1.148.719-1.932.893-2.343.546-.452-.381-.305-.879.4-1.512a8.848 8.848 0 0 1 3.543-1.825 1.715 1.715 0 0 1 .609-.125v.018a3.455 3.455 0 0 1-.514.26 11.8 11.8 0 0 0-2.627 1.461c-.561.5-.668.875-.363 1.131.179.151.593.128 1.222-.052z" class="prefix__cls-11" data-name="Path 13649" transform="translate(-152.615 -590.52)"/>
                <path id="prefix__Path_13650" d="M488.5 567.377l-.151.007c-.319.016-1.565 1.494-1.563 1.518.024.379 1.675 1.495 2.054 1.476.445-.021 1.5-1.217 1.713-1.526-.258-.297-1.607-1.497-2.053-1.475z" class="prefix__cls-11" data-name="Path 13650" transform="translate(-306.794 -557.04)"/>
            </g>
        </g>
        <g id="prefix__Group_1149" data-name="Group 1149" transform="translate(238.884 500.847)">
            <path id="prefix__Path_13651" d="M342.823 572.668a.662.662 0 0 1-.285.44.541.541 0 0 1-.278.093.614.614 0 0 1-.267-.081c-.066.046-.128.093-.191.14a.571.571 0 0 1-.314.084c-.241 0-.362-.136-.362-.412a.6.6 0 0 1 .1-.245q.1-.174.182-.174a.052.052 0 0 1 .046.033.146.146 0 0 1 0 .133.459.459 0 0 0-.041.132c0 .1.085.14.26.121a.414.414 0 0 0 .329-.265c.078-.16.126-.24.147-.24.066 0 .1.037.1.107a.226.226 0 0 1-.03.086.151.151 0 0 0-.019.105.448.448 0 0 0 .238.073c.064 0 .115-.048.155-.147.03-.083.061-.169.087-.254.013-.026.028-.036.043-.036.033 0 .06.033.083.1a.34.34 0 0 1 .013.2zm17.817-1.263a.247.247 0 0 1-.136.22c-.078-.03-.184-.065-.313-.106a5.591 5.591 0 0 1-.56.448 5.73 5.73 0 0 1-.759.386 2.11 2.11 0 0 1-.769.222c-.045 0-.067-.007-.067-.019s.054-.055.158-.1a4.416 4.416 0 0 0 1.747-1.005l-.411-.1c-.135-.033-.193-.1-.177-.2a.68.68 0 0 1 .255-.347.728.728 0 0 1 .475-.239.275.275 0 0 1 .308.314.687.687 0 0 1-.084.349c.228.079.337.137.331.174zm-.5-.213a.291.291 0 0 0-.034-.174.548.548 0 0 0-.32-.111c-.044 0-.072.021-.089.075s0 .09.041.1l.4.107zm-3.054 5.571a6.5 6.5 0 0 1 .07 1.166q.074.382-.48.78a3.084 3.084 0 0 1-1.838.486q-1.644 0-1.773-1.108a1.6 1.6 0 0 1 .274-.684c.2-.358.352-.536.461-.536a.092.092 0 0 1 .054.017.085.085 0 0 1 0 .141 1.659 1.659 0 0 0-.338.753c0 .512.439.769 1.322.769a2.606 2.606 0 0 0 1.982-.619 22.153 22.153 0 0 0-.344-2.188q-.249-1.2-.494-2.405.02-.108.119-.467a.051.051 0 0 1 .037-.037c.06 0 .128.074.207.224a5.615 5.615 0 0 1 .362 1.265 8.118 8.118 0 0 0 .379 1.42c.441 1.018 2.343.955 3.653.577a2.028 2.028 0 0 0 .754-.364.3.3 0 0 0 .007-.067.685.685 0 0 0-.368-.559.533.533 0 0 1-.185.49.994.994 0 0 1-.468.117h-.113q-.61 0-.61-.639a.892.892 0 0 1 .243-.522.84.84 0 0 1 .634-.371 1.143 1.143 0 0 1 .824.338 1.221 1.221 0 0 1 .427.93 1.239 1.239 0 0 1-.041.343c-.075.159-.125.258-.147.3a.769.769 0 0 1-.22.239 4.485 4.485 0 0 1-1.122.4c-.853.2-2.729.371-3.268-.187zm3.807-1.567a1.216 1.216 0 0 0-.326-.152 1.082 1.082 0 0 0-.257.117c-.093.056-.139.1-.139.131s.059.048.178.048q.426 0 .544-.144zm4.888 1.03a.913.913 0 0 0-.36-.638 1.152 1.152 0 0 0-.76-.339 1.437 1.437 0 0 0-.66.438 1.388 1.388 0 0 0-.314.64c-.023.121.042.241.2.364a1.037 1.037 0 0 0 .664.21.61.61 0 0 0 .452-.162 1.629 1.629 0 0 0 .2-.306c.114.155.146.271.095.346a3 3 0 0 1-1.2.975 6.311 6.311 0 0 1-1.839.563 8.249 8.249 0 0 1-1.015.04c-.11 0-.165.032-.165.1 0 .035.041.056.119.067q1.495.162 1.8.161a2.664 2.664 0 0 0 1.371-.356 4.832 4.832 0 0 0 1.026-.869 2.925 2.925 0 0 0 .39-1.231zm-.959-.086a.3.3 0 0 1-.19.1q-.292 0-.3-.1a.475.475 0 0 1 .1-.135c.208 0 .335.045.387.135zm.46-2.6a1.215 1.215 0 0 1-.338.317 1.653 1.653 0 0 1-.45.165c-.4.1-.68.173-.848.224-.282.112-.445.177-.487.19a2.861 2.861 0 0 1-.654.173 5.31 5.31 0 0 1 1.353-.645 6.023 6.023 0 0 1 1.424-.425zm-5.35-.272a2.481 2.481 0 0 0-.7-.33c-.33.247-.484.392-.452.433l.677.325a.849.849 0 0 0 .312-.2c.123-.114.18-.188.162-.224zm1.176-.124a1.652 1.652 0 0 0-.693-.36.8.8 0 0 0-.237.171 1.873 1.873 0 0 0-.24.241c.271.142.5.255.682.338a2.042 2.042 0 0 0 .312-.221.867.867 0 0 0 .177-.168zm-9.537 3.284c0 .062.006.12.006.177a1.744 1.744 0 0 1-.593 1.31 4.846 4.846 0 0 1-1.021.658 1.917 1.917 0 0 1-.657.088c-.265 0-.847-.054-1.743-.162a.379.379 0 0 1-.125-.055c-.059-.034-.089-.06-.089-.081s.013-.013.03-.015c.142-.014.408-.024.8-.029a3.784 3.784 0 0 0 .753-.07 3.145 3.145 0 0 0 2.239-1.354 3.682 3.682 0 0 0-.429-.507q-.325-.348-.325-.49c0-.012.026-.043.082-.091a.361.361 0 0 0 .111-.2.113.113 0 0 1 .114-.1c.128 0 .3.119.511.361a1.174 1.174 0 0 1 .338.565zm-1.471-4.115a1.231 1.231 0 0 1-.337.316 1.591 1.591 0 0 1-.452.164c-.395.1-.678.174-.849.226-.28.112-.443.177-.484.19a3 3 0 0 1-.655.174 5.217 5.217 0 0 1 1.353-.645 5.989 5.989 0 0 1 1.425-.426zm-3.979 6.073a.857.857 0 0 1-.292.4.194.194 0 0 1-.046 0 2.118 2.118 0 0 1-.481-.071c-.226-.055-.338-.115-.338-.176a.07.07 0 0 1 .029-.052 1.423 1.423 0 0 0 .21-.271q.105-.166.23-.166a.259.259 0 0 1 .083.016l.428.124c.125.044.19.092.19.147a.1.1 0 0 1-.012.045zm1.565-2.631c0-.26-.216-.545-.652-.857a1.859 1.859 0 0 0-.159.249.974.974 0 0 0-.12.247c0 .039.072.12.22.246s.218.225.218.3q0 .3-2 .6a14.859 14.859 0 0 1-2.13.2 4 4 0 0 1-1.154-.16 1.015 1.015 0 0 1-.643-.392.552.552 0 0 1-.053-.233.89.89 0 0 1 .058-.287 1.187 1.187 0 0 0 .056-.2c0-.033-.022-.051-.067-.051a.421.421 0 0 0-.087.011.977.977 0 0 0-.35.471 1.3 1.3 0 0 0-.126.352.941.941 0 0 0 .53.8 2.525 2.525 0 0 0 1.338.326 15.119 15.119 0 0 0 2.821-.272 6.171 6.171 0 0 0 2.014-.648 1.321 1.321 0 0 0 .29-.71zm-4.079-2.205a1.147 1.147 0 0 1-.338.317 1.622 1.622 0 0 1-.451.165c-.4.1-.678.173-.848.224-.281.114-.442.176-.488.191a2.856 2.856 0 0 1-.652.173 5.226 5.226 0 0 1 1.354-.643 5.974 5.974 0 0 1 1.416-.424z" class="prefix__cls-12" data-name="Path 13651" transform="translate(-340.687 -570.569)"/>
        </g>
        <g id="prefix__Group_1150" data-name="Group 1150" transform="translate(189.846 501.232)">
            <path id="prefix__Path_13652" d="M246.737 571.325a.87.87 0 0 1-.219.332 2.017 2.017 0 0 1-.516.232l-.63.22c-.138.072-.277.142-.421.209a2.17 2.17 0 0 1-.575.206 3.573 3.573 0 0 1 1.109-.7 4.506 4.506 0 0 1 1.251-.5zm4.094 6.343a3.612 3.612 0 0 1-1.275-.257.44.44 0 0 1-.126.2.464.464 0 0 1-.284.067 3.739 3.739 0 0 1-.635-.106 2.275 2.275 0 0 1-.813-.292 1.1 1.1 0 0 1-.777.39 1.366 1.366 0 0 1-.949-.224 2.83 2.83 0 0 1-.415-1.247q-.171-.945-.4-1.915c-.039-.123-.11-.354-.207-.691.034-.124.071-.245.105-.369.045-.152.086-.228.126-.228.016 0 .032.016.052.047a4.21 4.21 0 0 1 .363 1.178l.29 1.428a4.658 4.658 0 0 0 .344 1.158.811.811 0 0 0 .694.254c.129 0 .328-.015.594-.044a1.73 1.73 0 0 0 .528-.442 1.385 1.385 0 0 1 .326-.32 1.3 1.3 0 0 1 .29-.036.9.9 0 0 1 .516.17q.228.151.445.3a2.983 2.983 0 0 0 1.211.376v-.008q.547 0 .546-.32a3.5 3.5 0 0 0-.119-.655c-.1-.449-.174-.779-.214-.993q-.076-.386-.147-.769a5.4 5.4 0 0 1-.066-.736.929.929 0 0 1 .089-.423c.063-.127.124-.19.184-.19s.088.07.1.213a9 9 0 0 0 .271 1.471 7.47 7.47 0 0 0 .629 1.68c.464.911 1.641.857 2.911.645.294-.049.51-.093.655-.132-.406-.2-.606-.41-.606-.649a1.639 1.639 0 0 1 .972-1.2 2.294 2.294 0 0 1 .606-.091 1.993 1.993 0 0 1 .677.116 3.392 3.392 0 0 1 .611.255q.206.112.206.139c0 .017-.057.024-.172.019q-.219-.044-.766-.092a3.755 3.755 0 0 0-.965.144q-.618.157-.658.286c-.009.11.144.245.455.4a2.157 2.157 0 0 0 1 .265 1.626 1.626 0 0 0 .214-.015 17.737 17.737 0 0 0 1.7-.525.469.469 0 0 1 .089-.023.2.2 0 0 1 .1 0 .056.056 0 0 1 .034.067 1.1 1.1 0 0 1-.279.459 12.972 12.972 0 0 1-2.389.81c-.948.252-3.344.825-4.267.21a1.723 1.723 0 0 1-.544-.692.817.817 0 0 1-.275.612.833.833 0 0 1-.579.317zm-1.626-.64c-.186-.317-.384-.477-.593-.482a.246.246 0 0 0-.23.087c-.04.06-.077.119-.114.178l.937.217zm23.845-2.251a1.437 1.437 0 0 1-.172.248.645.645 0 0 1-.225.195.958.958 0 0 1-.385-.107 2.045 2.045 0 0 1-.309-.145.057.057 0 0 1-.011-.075 1.432 1.432 0 0 1 .339-.42.086.086 0 0 1 .082-.025 3 3 0 0 1 .671.258c.022.013.026.038.01.072zm.512 2.214c0 .063.006.121.006.178a1.741 1.741 0 0 1-.593 1.31 4.862 4.862 0 0 1-1.021.657 1.9 1.9 0 0 1-.657.089q-.4 0-1.743-.162a.392.392 0 0 1-.126-.056c-.059-.034-.089-.06-.089-.081a.044.044 0 0 1 .03-.015c.142-.014.41-.023.8-.029a3.731 3.731 0 0 0 .754-.07 3.137 3.137 0 0 0 2.237-1.353 3.631 3.631 0 0 0-.427-.507c-.216-.231-.326-.394-.326-.489 0-.013.026-.043.083-.091a.359.359 0 0 0 .112-.2c.016-.069.055-.1.113-.1.128 0 .3.12.51.361a1.16 1.16 0 0 1 .338.565zm.438 2.394a.793.793 0 0 1-.219.328 1.97 1.97 0 0 1-.516.232c-.4.139-.614.212-.63.22-.137.07-.277.141-.421.209a2.19 2.19 0 0 1-.575.206 3.554 3.554 0 0 1 1.109-.7 4.5 4.5 0 0 1 1.252-.494zm-3.274-2.441a2.3 2.3 0 0 0-1.62-1.761q-.551 0-.628.437a.432.432 0 0 0 .029.225c.033.083.073.125.126.125a.1.1 0 0 0 .04-.01.444.444 0 0 1 .22-.052 1.589 1.589 0 0 1 .926.456c.328.275.491.455.491.545 0 .068-.238.142-.718.22a6.371 6.371 0 0 1-1.008.11.78.78 0 0 1-.569-.144.286.286 0 0 0-.059-.007.187.187 0 0 0-.184.115.538.538 0 0 0 .047.459.646.646 0 0 0 .583.261 6.623 6.623 0 0 0 1.1-.135 2.408 2.408 0 0 0 .953-.3.739.739 0 0 0 .268-.544zm-3.963-.991a1.1 1.1 0 0 1-.231.666c-.1.139-.38.209-.836.209a4.507 4.507 0 0 0-.858.051c-.174.043-.261.082-.261.115 0 .015.028.023.09.029.192.023.467.07.824.145a.387.387 0 0 1 .206.377 1.411 1.411 0 0 1-.385.556 10.373 10.373 0 0 1-2.206.843 6.861 6.861 0 0 1-1.684.279 2.354 2.354 0 0 1-1.289-.36 1.235 1.235 0 0 1-.651-1.07 1.391 1.391 0 0 1 .159-.573 1.752 1.752 0 0 1 .5-.656.485.485 0 0 1 .267-.113c.02 0 .03.006.03.019 0 .028-.043.089-.125.179a1.317 1.317 0 0 0-.379.92.869.869 0 0 0 .51.729 2.14 2.14 0 0 0 1.119.293 9.481 9.481 0 0 0 3.6-.879c.083-.043.091-.091.022-.143a1.9 1.9 0 0 0-.621-.125c-.522-.062-.917-.117-1.187-.169-.074-.021-.113-.062-.113-.12q0-.144.249-.383a4.854 4.854 0 0 1 1.216-.424 4.6 4.6 0 0 1 .966-.128c.368 0 .569-.063.6-.188a1.525 1.525 0 0 0-.261-.283.542.542 0 0 1-.184-.276 2.815 2.815 0 0 1 .267-.42l.04-.007a.449.449 0 0 1 .334.217 1.61 1.61 0 0 1 .265.691zm-.3-2.048a.967.967 0 0 1-.291.4.25.25 0 0 1-.046 0 2.143 2.143 0 0 1-.48-.069c-.227-.054-.338-.113-.338-.174a.082.082 0 0 1 .027-.055 1.658 1.658 0 0 0 .2-.272.29.29 0 0 1 .231-.162.22.22 0 0 1 .083.016c.282.08.427.124.439.127.127.045.19.094.19.148a.094.094 0 0 1-.012.041zm-4.211 6.156c.02.04 0 .12-.07.24s-.146.192-.213.195a1.762 1.762 0 0 1-.393-.118c-.212-.081-.327-.142-.344-.184-.018-.022.033-.1.157-.239a1.379 1.379 0 0 1 .206-.217 2.174 2.174 0 0 1 .657.323zm1.162-.272a.625.625 0 0 1-.1.232c-.083.142-.174.218-.274.229a1.033 1.033 0 0 1-.38-.141 1.109 1.109 0 0 1-.29-.2c.158-.282.3-.435.415-.46a1.215 1.215 0 0 1 .321.122c.189.088.293.159.307.215zm-5.49-1.924a4.52 4.52 0 0 0-1.251.495 3.58 3.58 0 0 0-1.109.7 2.161 2.161 0 0 0 .574-.206c.144-.067.284-.138.421-.21q.025-.011.63-.219a2.017 2.017 0 0 0 .516-.233.8.8 0 0 0 .218-.328zm-11.032-6.083a4.4 4.4 0 0 0-1.251.5 3.57 3.57 0 0 0-1.109.7 2.284 2.284 0 0 0 .577-.206q.213-.1.421-.21c.014-.007.226-.081.628-.221a1.918 1.918 0 0 0 .516-.232.869.869 0 0 0 .216-.332z" class="prefix__cls-12" data-name="Path 13652" transform="translate(-244.376 -571.325)"/>
        </g>
    </g>
</svg>
